#!OML:ASF E:\basketball\basketball\Project 1\Capture day 1\Session 1\Subject.ASF
:FULLY-SPECIFIED
:DEGREES
82
root -14.3869 13.6341 -4.05449 -192.28 77.5416 -201.575
lowerback 25.6728 4.30387 -4.533
upperback 9.94978 5.46611 0.22231
thorax -3.54952 2.99844 1.25973
lowerneck 5.30631 -17.4816 -14.6195
upperneck -29.1216 -18.0997 38.5101
head -3.27277 -10.9235 15.8296
rclavicle 1.59028e-015 1.66979e-014
rhumerus 9.8893 -24.8195 -76.7789
rradius 25.0741
rwrist 42.7259
rhand -16.1717 24.8688
rfingers 7.12502
rthumb 10.0345 -4.87197
lclavicle 1.59028e-015 1.66979e-014
lhumerus -37.9086 0.48109 82.491
lradius 41.4489
lwrist 17.5236
lhand -35.4113 39.5996
lfingers 7.12502
lthumb -8.54173 69.4068
rfemur -44.4837 -4.67531 40.2315
rtibia 75.505
rfoot -25.3571 -11.9172
rtoes 9.44532
lfemur -42.5733 14.5883 -2.15302
ltibia 92.1688
lfoot -15.29 2.76859
ltoes -27.0169
83
root -14.1054 13.6384 -4.17456 -193.006 78.05 -202.398
lowerback 25.6711 5.11022 -4.91
upperback 10.4294 6.47692 0.246828
thorax -3.10456 3.49526 1.23043
lowerneck 5.92863 -18.1169 -14.7576
upperneck -30.7916 -18.5238 39.9392
head -3.46861 -11.3592 16.5887
rclavicle 3.18055e-015 -2.8625e-014
rhumerus 11.383 -34.567 -78.4869
rradius 21.9438
rwrist 41.1158
rhand -16.9992 26.2492
rfingers 7.12502
rthumb 9.23614 -3.52856
lclavicle 3.18055e-015 -2.8625e-014
lhumerus -37.5344 -0.190046 82.063
lradius 41.8159
lwrist 17.7361
lhand -35.3685 39.4175
lfingers 7.12502
lthumb -8.50037 69.2264
rfemur -43.8716 -5.19259 39.7429
rtibia 76.7505
rfoot -25.1307 -10.9801
rtoes 7.26771
lfemur -45.5484 13.9364 -2.29219
ltibia 87.6993
lfoot -14.6803 0.999579
ltoes -28.0116
84
root -13.8084 13.6527 -4.28516 -194.343 77.9653 -203.797
lowerback 26.7013 5.55348 -5.21539
upperback 10.3249 6.89549 -0.155061
thorax -3.70597 3.71486 0.744333
lowerneck 6.26082 -18.6746 -14.2709
upperneck -31.8539 -18.8332 41.0484
head -3.6105 -11.7218 17.0612
rclavicle -5.00937e-014 5.48646e-014
rhumerus 12.1053 -43.9709 -80.6456
rradius 20.1794
rwrist 38.14
rhand -14.8293 27.515
rfingers 7.12502
rthumb 11.3294 -2.15899
lclavicle -5.00937e-014 5.48646e-014
lhumerus -38.1691 -1.38161 81.0977
lradius 42.6146
lwrist 18.2185
lhand -35.7644 39.2512
lfingers 7.12502
lthumb -8.88243 69.0443
rfemur -43.2051 -6.08726 38.865
rtibia 78.0268
rfoot -25.2131 -9.33322
rtoes 6.80921
lfemur -48.115 12.7478 -2.58549
ltibia 82.4613
lfoot -13.3484 -1.48794
ltoes -31.8992
85
root -13.5036 13.6685 -4.38805 -195.639 77.9827 -205.389
lowerback 26.9385 6.14566 -6.15536
upperback 10.565 7.44917 -0.104285
thorax -3.67413 3.97392 1.14105
lowerneck 6.43049 -19.0429 -14.234
upperneck -33.2461 -18.8599 42.0747
head -3.8428 -11.8894 17.6792
rclavicle 3.81667e-014 -3.89618e-014
rhumerus 12.4614 -50.3165 -81.4811
rradius 20.1474
rwrist 33.1263
rhand -13.3391 28.2876
rfingers 7.12502
rthumb 12.7663 -1.3021
lclavicle 3.81667e-014 -3.89618e-014
lhumerus -38.3674 -2.02727 80.8413
lradius 43.2956
lwrist 18.2051
lhand -35.9619 38.648
lfingers 7.12502
lthumb -9.07308 68.4329
rfemur -42.7801 -6.73484 37.9462
rtibia 79.264
rfoot -25.0146 -7.41582
rtoes 5.52986
lfemur -50.3168 11.8669 -2.77736
ltibia 76.7143
lfoot -11.5349 -4.45258
ltoes -34.4183
86
root -13.1826 13.6876 -4.48609 -196.808 78.0302 -206.913
lowerback 26.9637 6.71889 -7.19954
upperback 10.76 7.95549 -0.0761219
thorax -3.60892 4.20244 1.59627
lowerneck 6.72941 -19.2092 -14.362
upperneck -34.4132 -18.6517 43.1726
head -4.06354 -11.9332 18.4448
rclavicle -5.24792e-014 -5.88403e-014
rhumerus 11.2856 -53.771 -80.8981
rradius 21.2984
rwrist 27.8259
rhand -14.5503 29.9262
rfingers 7.12502
rthumb 11.5984 0.26716
lclavicle -5.24792e-014 -5.88403e-014
lhumerus -38.8108 -2.62271 80.6142
lradius 44.0549
lwrist 18.4212
lhand -36.1199 38.1462
lfingers 7.12502
lthumb -9.2255 67.9243
rfemur -42.4525 -7.44843 37.0197
rtibia 80.433
rfoot -24.3913 -5.27916
rtoes 4.93099
lfemur -51.914 11.1478 -2.84224
ltibia 70.6728
lfoot -9.08158 -6.83905
ltoes -35.2831
87
root -12.8484 13.7144 -4.58178 -198.042 78.1036 -208.382
lowerback 26.9838 7.14659 -8.30167
upperback 10.9518 8.26493 -0.0418385
thorax -3.54355 4.33169 2.1486
lowerneck 6.88359 -19.3436 -14.5192
upperneck -35.0779 -18.5536 44.1454
head -4.09405 -12.0016 19.0524
rclavicle -2.38542e-015 -5.00937e-014
rhumerus 9.05121 -54.7122 -79.1288
rradius 22.4588
rwrist 23.4405
rhand -16.3455 30.7903
rfingers 7.12502
rthumb 9.8668 1.04154
lclavicle -2.38542e-015 -5.00937e-014
lhumerus -39.5622 -2.70535 80.3431
lradius 44.8226
lwrist 19.0741
lhand -36.2358 37.5369
lfingers 7.12502
lthumb -9.3373 67.3101
rfemur -41.9226 -8.31142 36.0362
rtibia 81.5216
rfoot -23.6062 -2.85129
rtoes 5.94556
lfemur -52.8544 10.5516 -2.80502
ltibia 64.6635
lfoot -5.89833 -7.84537
ltoes -35.0293
88
root -12.5117 13.7393 -4.67988 -198.152 77.6286 -208.287
lowerback 27.4361 7.15153 -9.18111
upperback 11.2715 8.09511 0.126801
thorax -3.47888 4.23861 2.84836
lowerneck 6.67886 -19.4373 -14.7268
upperneck -35.4035 -18.5059 44.937
head -3.96455 -12.0352 19.4628
rclavicle -2.54444e-014 7.15625e-015
rhumerus 6.61713 -53.6237 -76.946
rradius 23.5823
rwrist 18.9787
rhand -18.5535 32.4455
rfingers 7.12502
rthumb 7.73611 2.60701
lclavicle -2.54444e-014 7.15625e-015
lhumerus -40.4512 -2.28964 80.1936
lradius 45.5149
lwrist 19.8983
lhand -36.5602 37.3756
lfingers 7.12502
lthumb -9.65031 67.1345
rfemur -40.9058 -9.83561 35.0894
rtibia 82.5071
rfoot -22.6694 -0.49275
rtoes 6.1825
lfemur -53.2051 9.52562 -2.63175
ltibia 58.9543
lfoot -2.8822 -6.62226
ltoes -35.7556
89
root -12.1903 13.7338 -4.79101 -197.061 77.7279 -207.236
lowerback 27.4556 7.13402 -9.75276
upperback 11.5229 7.98635 0.2473
thorax -3.25601 4.16814 3.34818
lowerneck 6.45436 -19.4174 -14.4911
upperneck -35.594 -18.2863 45.2783
head -4.017 -11.968 19.6569
rclavicle 5.1684e-014 -1.13705e-013
rhumerus 4.38059 -52.055 -75.1617
rradius 25.0749
rwrist 14.6054
rhand -19.9969 33.943
rfingers 7.12502
rthumb 6.34278 4.05795
lclavicle 5.1684e-014 -1.13705e-013
lhumerus -41.4746 -1.82244 79.9673
lradius 46.1711
lwrist 20.7461
lhand -36.7776 37.8614
lfingers 7.12502
lthumb -9.86013 67.6105
rfemur -40.3813 -10.7413 34.5696
rtibia 83.5859
rfoot -21.0603 1.58006
rtoes 4.92141
lfemur -53.4681 9.02365 -2.03769
ltibia 53.9214
lfoot -0.474764 -4.67205
ltoes -36.2173
90
root -11.8685 13.7317 -4.90662 -195.714 77.9748 -205.658
lowerback 27.6186 7.01887 -9.99278
upperback 11.7681 7.81784 0.290315
thorax -3.05303 4.07951 3.58804
lowerneck 6.35789 -19.2678 -14.0975
upperneck -35.5773 -17.9468 45.3311
head -4.16272 -11.8282 19.7373
rclavicle -5.56597e-014 -7.07673e-014
rhumerus 2.31529 -50.5177 -73.7048
rradius 26.8044
rwrist 10.6224
rhand -20.6898 35.3086
rfingers 7.12502
rthumb 5.67387 5.40459
lclavicle -5.56597e-014 -7.07673e-014
lhumerus -42.6133 -1.29489 79.5771
lradius 46.6762
lwrist 21.645
lhand -36.5973 38.1642
lfingers 7.12502
lthumb -9.68612 67.9215
rfemur -39.5832 -11.6932 34.1103
rtibia 84.6058
rfoot -19.2958 3.49006
rtoes 3.12071
lfemur -53.084 8.47072 -1.24502
ltibia 49.7037
lfoot 1.35973 -2.64746
ltoes -35.2061
91
root -11.5522 13.7367 -5.02203 -194.357 78.3184 -203.812
lowerback 27.9879 6.80806 -10.0544
upperback 12.0058 7.55049 0.353911
thorax -2.92464 3.94997 3.76651
lowerneck 6.16533 -18.9997 -13.9392
upperneck -35.2326 -17.6102 45.1646
head -4.19776 -11.6251 19.6735
rclavicle 8.26944e-014 -7.95139e-016
rhumerus 0.423847 -48.4796 -72.2833
rradius 28.6672
rwrist 6.5364
rhand -21.1533 36.0492
rfingers 7.12502
rthumb 5.22636 6.13369
lclavicle 8.26944e-014 -7.95139e-016
lhumerus -43.7442 -0.570784 79.2544
lradius 46.89
lwrist 22.6312
lhand -36.4296 38.1253
lfingers 7.12502
lthumb -9.52434 67.8901
rfemur -38.5093 -12.673 33.6532
rtibia 85.6421
rfoot -17.453 5.30286
rtoes 2.37907
lfemur -52.2504 7.87308 -0.346547
ltibia 46.5394
lfoot 2.78371 -0.770346
ltoes -33.4645
92
root -11.2452 13.7179 -5.14771 -192.458 78.8987 -201.294
lowerback 28.3516 6.51326 -9.94667
upperback 12.2716 7.22345 0.466399
thorax -2.74475 3.79169 3.92937
lowerneck 5.80732 -18.6579 -13.7907
upperneck -34.7257 -17.2633 44.6576
head -4.22072 -11.3609 19.394
rclavicle 2.06736e-014 -6.2816e-014
rhumerus -1.06526 -46.1762 -71.0879
rradius 30.6123
rwrist 2.61544
rhand -21.6356 36.268
rfingers 7.12502
rthumb 4.76061 6.34152
lclavicle 2.06736e-014 -6.2816e-014
lhumerus -44.6833 0.352084 78.992
lradius 46.7345
lwrist 23.6391
lhand -36.2819 38.0583
lfingers 7.12502
lthumb -9.38182 67.8295
rfemur -37.503 -13.4198 33.3254
rtibia 86.9202
rfoot -14.9694 6.96665
rtoes 4.18205
lfemur -51.2838 7.52663 0.661879
ltibia 44.5003
lfoot 4.26641 0.373089
ltoes -31.7085
93
root -10.9409 13.6745 -5.2896 -190.665 79.8558 -198.86
lowerback 28.4888 6.21349 -9.8009
upperback 12.5694 6.92016 0.566918
thorax -2.42395 3.63754 4.07167
lowerneck 5.3362 -18.3907 -13.6539
upperneck -34.0787 -17.0889 44.1078
head -4.12567 -11.1752 18.9927
rclavicle 4.77083e-015 -1.43125e-014
rhumerus -2.23271 -44.0327 -70.1293
rradius 32.7627
rwrist -0.9111
rhand -22.298 36.4206
rfingers 7.12502
rthumb 4.12103 6.48075
lclavicle 4.77083e-015 -1.43125e-014
lhumerus -45.3003 1.50157 78.7482
lradius 46.1276
lwrist 24.4544
lhand -35.9689 38.3629
lfingers 7.12502
lthumb -9.0798 68.1475
rfemur -36.8037 -13.7932 32.973
rtibia 88.574
rfoot -12.0714 8.14727
rtoes 7.13987
lfemur -50.2194 7.62259 1.53943
ltibia 43.6132
lfoot 5.88764 0.539324
ltoes -29.6975
94
root -10.634 13.6223 -5.44045 -189.678 80.9562 -197.039
lowerback 28.8347 5.92483 -9.66814
upperback 12.7884 6.58873 0.616044
thorax -2.27753 3.47584 4.1509
lowerneck 4.97924 -18.1146 -13.4974
upperneck -33.4875 -16.8979 43.4991
head -4.08606 -10.9904 18.6032
rclavicle -1.86858e-014 3.02153e-014
rhumerus -3.48502 -42.0773 -69.115
rradius 35.139
rwrist -4.11544
rhand -23.1445 36.0548
rfingers 7.12502
rthumb 3.30352 6.10062
lclavicle -1.86858e-014 3.02153e-014
lhumerus -45.8263 2.75717 78.4425
lradius 45.257
lwrist 24.8772
lhand -35.5038 38.7925
lfingers 7.12502
lthumb -8.63098 68.596
rfemur -36.0994 -14.049 32.4359
rtibia 90.5057
rfoot -9.51128 8.65869
rtoes 9.55459
lfemur -48.8164 7.94406 2.06604
ltibia 43.9229
lfoot 7.09327 -0.249596
ltoes -24.1346
95
root -10.3335 13.5475 -5.59879 -188.374 82.3618 -194.962
lowerback 29.2064 5.69075 -9.4086
upperback 12.8592 6.31666 0.566623
thorax -2.30431 3.35092 4.01921
lowerneck 4.63003 -17.7683 -13.8045
upperneck -32.5275 -16.7249 43.2574
head -3.792 -10.7949 18.3977
rclavicle 8.34896e-015 -2.50469e-014
rhumerus -4.75855 -40.5648 -68.0864
rradius 37.5315
rwrist -6.98485
rhand -23.4851 36.2413
rfingers 7.12502
rthumb 2.97462 6.28234
lclavicle 8.34896e-015 -2.50469e-014
lhumerus -46.3045 3.85497 77.9987
lradius 44.5832
lwrist 25.2052
lhand -34.8617 39.4621
lfingers 7.12502
lthumb -8.01129 69.2902
rfemur -35.7971 -13.9762 32.0246
rtibia 92.6659
rfoot -7.50329 8.56907
rtoes 11.1685
lfemur -47.4159 8.68276 2.4771
ltibia 45.335
lfoot 3.93732 -1.07524
ltoes -32.0267
